# This file uses centimeters as units for non-parametric coordinates.

g default
v -3.546113 0.000000 0.040540
v -3.551954 0.010116 0.045378
v -3.543694 -0.004190 0.028858
v 3.542953 3.006935 0.028859
v 3.551614 3.021000 0.045378
v 3.545489 3.011054 0.040540
v -3.587082 0.070961 0.040540
v -3.589502 0.075152 0.028858
v -3.581241 0.060844 0.045378
v 3.589502 3.085418 0.028859
v 3.587112 3.081211 0.040540
v 3.581342 3.071055 0.045378
v -3.546113 0.000000 -0.040522
v -3.543694 -0.004190 -0.028840
v -3.551954 0.010116 -0.045360
v 3.545489 3.011054 -0.040521
v 3.551614 3.021000 -0.045360
v 3.542953 3.006935 -0.028840
v -3.587082 0.070961 -0.040522
v -3.581241 0.060844 -0.045360
v -3.589502 0.075152 -0.028840
v 3.587112 3.081211 -0.040521
v 3.589502 3.085418 -0.028840
v 3.581342 3.071055 -0.045360
v 0.414134 1.906825 -0.043783
v 0.407750 1.907698 -0.038700
v 0.404172 1.908391 -0.031243
v 0.404825 1.914679 -0.031243
v 0.408304 1.919487 -0.031243
v 0.404172 1.908391 0.031225
v 0.407750 1.907698 0.038682
v 0.414134 1.906825 0.043765
v 0.408304 1.919487 0.031225
v 0.404825 1.914679 0.031225
v 0.845787 1.896769 0.044609
v 0.848784 1.893525 0.039337
v 0.849268 1.891883 0.031225
v 0.849862 1.897952 0.031225
v 0.844741 1.902588 0.031225
v 0.845577 1.901132 0.039331
v 0.849268 1.891883 -0.031243
v 0.848784 1.893525 -0.039355
v 0.845787 1.896769 -0.044627
v 0.845577 1.901132 -0.039349
v 0.844741 1.902588 -0.031243
v 0.849862 1.897952 -0.031243
v 0.556426 1.565950 -0.031243
v 0.550582 1.566819 -0.031243
v 0.545656 1.570737 -0.031243
v 0.547658 1.573815 -0.038709
v 0.551488 1.579040 -0.043790
v 0.551488 1.579040 0.043771
v 0.547658 1.573815 0.038691
v 0.545656 1.570737 0.031225
v 0.550582 1.566819 0.031225
v 0.556426 1.565950 0.031225
v 0.410581 1.914681 -0.039140
v 0.407993 1.914601 -0.039205
v 0.410581 1.914681 0.039122
v 0.407993 1.914601 0.039187
v 0.848533 1.897952 0.036874
v 0.848533 1.897952 -0.036892
v 0.554599 1.570967 -0.039147
v 0.552736 1.569167 -0.039219
v 0.554599 1.570967 0.039129
v 0.552736 1.569167 0.039201
vt 0.843236 0.675704
vt 0.848635 0.674516
vt 0.847447 0.669180
vt 0.842048 0.670368
vt 0.614324 0.753040
vt 0.619660 0.751852
vt 0.618409 0.746516
vt 0.613073 0.747704
vt 0.010399 0.595665
vt 0.006251 0.091434
vt 0.533493 0.096770
vt 0.029262 0.092622
vt 0.018370 0.595665
vt 0.022530 0.091434
vt 0.533493 0.104753
vt 0.029262 0.108901
vt 0.006188 0.595665
vt 0.005348 0.595665
vt 0.005366 0.091434
vt 0.029262 0.091782
vt 0.533493 0.091782
vt 0.533493 0.092622
vt 0.533493 0.108901
vt 0.533454 0.109741
vt 0.029491 0.109741
vt 0.011239 0.595665
vt 0.011220 0.091434
vt 0.010336 0.091434
vt 0.029262 0.096770
vt 0.029262 0.097610
vt 0.533493 0.097607
vt 0.023370 0.091434
vt 0.023348 0.595087
vt 0.022464 0.595665
vt 0.018319 0.091434
vt 0.017479 0.091434
vt 0.017494 0.595087
vt 0.533454 0.103913
vt 0.029491 0.103913
vt 0.029262 0.104753
vt 0.848287 0.669528
vt 0.848635 0.670368
vt 0.618409 0.753040
vt 0.619294 0.752692
vt 0.842396 0.669528
vt 0.843236 0.669180
vt 0.613073 0.751852
vt 0.613440 0.752692
vt 0.848287 0.675356
vt 0.847447 0.675704
vt 0.619294 0.746864
vt 0.619660 0.747704
vt 0.842396 0.675356
vt 0.842048 0.674516
vt 0.613440 0.746864
vt 0.614324 0.746516
vt 0.679275 0.672999
vt 0.674708 0.672999
vt 0.374461 0.392658
vt 0.374461 0.397225
vt 0.414309 0.338379
vt 0.088984 0.686646
vt 0.386593 0.356265
vt 0.386593 0.360832
vt 0.674707 0.694151
vt 0.679274 0.694151
vt 0.673985 0.673158
vt 0.407574 0.307705
vt 0.407614 0.308067
vt 0.405863 0.397225
vt 0.405863 0.392659
vt 0.406089 0.397225
vt 0.406089 0.392659
vt 0.674708 0.672577
vt 0.679275 0.672577
vt 0.414719 0.338385
vt 0.374282 0.397784
vt 0.095679 0.716959
vt 0.095719 0.717321
vt 0.679997 0.673158
vt 0.374282 0.392100
vt 0.088574 0.686641
vt 0.386412 0.361391
vt 0.089098 0.686249
vt 0.374044 0.392658
vt 0.374044 0.397225
vt 0.386175 0.360832
vt 0.386175 0.356265
vt 0.414195 0.338776
vt 0.386412 0.355706
vt 0.673984 0.693988
vt 0.387080 0.323275
vt 0.386743 0.323133
vt 0.674707 0.694570
vt 0.679274 0.694570
vt 0.418320 0.356265
vt 0.418096 0.356265
vt 0.418096 0.360832
vt 0.418320 0.360832
vt 0.679999 0.693988
vt 0.116549 0.701893
vt 0.116212 0.701751
vt 0.405664 0.397907
vt 0.408178 0.307690
vt 0.408052 0.307505
vt 0.674125 0.672754
vt 0.405871 0.397808
vt 0.095115 0.717336
vt 0.405664 0.391977
vt 0.679857 0.672754
vt 0.095241 0.717521
vt 0.405871 0.392076
vt 0.089232 0.686981
vt 0.088728 0.686300
vt 0.386108 0.361245
vt 0.373977 0.392246
vt 0.414068 0.338054
vt 0.386108 0.355852
vt 0.414565 0.338727
vt 0.373977 0.397638
vt 0.386553 0.323705
vt 0.417894 0.355583
vt 0.418100 0.355682
vt 0.674124 0.694393
vt 0.386412 0.323531
vt 0.417894 0.361514
vt 0.116739 0.701321
vt 0.116880 0.701495
vt 0.679858 0.694393
vt 0.418100 0.361415
vn -0.028546 0.067954 0.997280
vn -0.010955 0.026077 0.999600
vn 0.008279 -0.019524 0.999775
vn 0.002639 -0.006224 0.999977
vn -0.010955 0.026077 -0.999600
vn -0.028546 0.067953 -0.997280
vn 0.002639 -0.006224 -0.999977
vn 0.008279 -0.019524 -0.999775
vn 0.391013 -0.920252 -0.015637
vn 0.391005 -0.920235 -0.016826
vn 0.391005 -0.920235 0.016826
vn 0.391013 -0.920252 0.015637
vn -0.386659 0.922112 -0.014322
vn -0.386652 0.922095 -0.015514
vn -0.386652 0.922095 0.015514
vn -0.386659 0.922112 0.014322
vn 0.860080 -0.510160 0.000001
vn 0.860079 -0.510160 0.000000
vn 0.869434 -0.494049 -0.000051
vn 0.860080 -0.510160 0.000000
vn 0.860038 -0.510231 0.000001
vn 0.851460 -0.524420 0.000096
vn 0.860037 -0.510231 0.000001
vn 0.860038 -0.510231 0.000000
vn 0.851483 -0.524382 -0.000071
vn 0.860038 -0.510231 0.000000
vn 0.860080 -0.510160 0.000001
vn 0.869439 -0.494040 0.000077
vn -0.866026 -0.499999 0.000000
vn -0.866026 -0.499999 0.000000
vn -0.866008 -0.500030 -0.000010
vn -0.866026 -0.499999 0.000000
vn -0.866026 -0.499999 0.000000
vn -0.866011 -0.500026 -0.000026
vn -0.866026 -0.499999 0.000000
vn -0.866026 -0.499999 0.000001
vn -0.866011 -0.500026 0.000010
vn -0.866026 -0.499999 0.000001
vn -0.866026 -0.499999 0.000000
vn -0.866008 -0.500030 0.000000
vn 0.002639 -0.006224 0.999977
vn 0.008279 -0.019524 0.999775
vn 0.304784 -0.717837 0.625953
vn 0.289674 -0.682321 0.671213
vn 0.289674 -0.682321 0.671213
vn 0.304784 -0.717837 0.625953
vn 0.391013 -0.920252 0.015637
vn 0.391005 -0.920235 0.016826
vn -0.386659 0.922112 0.014322
vn -0.386652 0.922095 0.015514
vn -0.304562 0.725862 0.616738
vn -0.319767 0.762172 0.562888
vn -0.319767 0.762172 0.562888
vn -0.304562 0.725862 0.616738
vn -0.010955 0.026077 0.999600
vn -0.028546 0.067954 0.997280
vn 0.391005 -0.920235 -0.016826
vn 0.391013 -0.920252 -0.015637
vn 0.304784 -0.717837 -0.625953
vn 0.289674 -0.682321 -0.671213
vn 0.289674 -0.682321 -0.671213
vn 0.304784 -0.717837 -0.625953
vn 0.008279 -0.019524 -0.999775
vn 0.002639 -0.006224 -0.999977
vn -0.028546 0.067953 -0.997280
vn -0.010955 0.026077 -0.999600
vn -0.304562 0.725862 -0.616738
vn -0.319767 0.762172 -0.562888
vn -0.319767 0.762172 -0.562888
vn -0.304562 0.725862 -0.616738
vn -0.386652 0.922095 -0.015514
vn -0.386659 0.922112 -0.014322
vn -0.924438 -0.381053 0.014591
vn -0.924438 -0.381053 -0.014591
vn -0.919983 -0.391687 -0.014581
vn -0.919983 -0.391687 0.014582
vn 0.043252 0.999032 0.008030
vn 0.043252 0.999032 -0.008030
vn -0.443845 0.895936 -0.017332
vn -0.443847 0.895935 0.017332
vn 0.025063 0.010687 -0.999629
vn -0.383604 -0.164482 -0.908732
vn -0.386038 -0.157886 -0.908871
vn 0.025063 0.010687 0.999629
vn -0.386037 -0.157886 0.908871
vn -0.383605 -0.164483 0.908731
vn 0.746866 -0.664925 -0.008130
vn 0.746866 -0.664925 0.008130
vn 0.332019 -0.943111 0.017444
vn 0.332018 -0.943112 -0.017445
vn -0.919983 -0.391687 -0.014581
vn -0.924438 -0.381053 -0.014591
vn -0.679212 -0.280604 -0.678183
vn -0.676817 -0.287488 -0.677695
vn -0.679212 -0.280604 -0.678183
vn -0.386038 -0.157886 -0.908871
vn -0.383604 -0.164482 -0.908732
vn -0.676817 -0.287488 -0.677695
vn -0.443845 0.895936 -0.017332
vn -0.820941 0.570768 -0.016728
vn -0.820941 0.570768 0.016728
vn -0.443847 0.895935 0.017332
vn -0.820941 0.570768 0.016728
vn -0.820941 0.570768 -0.016728
vn -0.924438 -0.381053 -0.014591
vn -0.924438 -0.381053 0.014591
vn 0.031255 0.820183 -0.571246
vn 0.025063 0.010687 -0.999629
vn -0.386038 -0.157886 -0.908871
vn -0.305458 0.587793 -0.749130
vn -0.443845 0.895936 -0.017332
vn 0.043252 0.999032 -0.008030
vn 0.031255 0.820183 -0.571246
vn -0.305458 0.587793 -0.749130
vn -0.386037 -0.157886 0.908871
vn -0.679212 -0.280604 0.678183
vn -0.676817 -0.287488 0.677694
vn -0.383605 -0.164483 0.908731
vn -0.679212 -0.280604 0.678183
vn -0.924438 -0.381053 0.014591
vn -0.919983 -0.391687 0.014582
vn -0.676817 -0.287488 0.677694
vn 0.031255 0.820183 0.571246
vn 0.043252 0.999032 0.008030
vn -0.443847 0.895935 0.017332
vn -0.305451 0.587799 0.749127
vn -0.386037 -0.157886 0.908871
vn 0.025063 0.010687 0.999629
vn 0.031255 0.820183 0.571246
vn -0.305451 0.587799 0.749127
vn 0.746866 -0.664925 0.008130
vn 0.608793 -0.547546 0.574078
vn 0.207606 -0.627157 0.750716
vn 0.332019 -0.943111 0.017444
vn 0.608793 -0.547546 0.574078
vn 0.025063 0.010687 0.999629
vn -0.383605 -0.164483 0.908731
vn 0.207606 -0.627157 0.750716
vn 0.043252 0.999032 -0.008030
vn 0.043252 0.999032 0.008030
vn 0.776236 0.630378 -0.009008
vn 0.776236 0.630378 0.009008
vn 0.776236 0.630378 0.009008
vn 0.776236 0.630378 -0.009008
vn 0.746866 -0.664925 0.008130
vn 0.746866 -0.664925 -0.008130
vn 0.025063 0.010687 -0.999629
vn 0.608793 -0.547546 -0.574078
vn 0.207592 -0.627164 -0.750714
vn -0.383604 -0.164482 -0.908732
vn 0.608793 -0.547546 -0.574078
vn 0.746866 -0.664925 -0.008130
vn 0.332018 -0.943112 -0.017445
vn 0.207592 -0.627164 -0.750714
vn -0.919983 -0.391687 0.014582
vn -0.919983 -0.391687 -0.014581
vn -0.165549 -0.986057 -0.016865
vn -0.165548 -0.986058 0.016865
vn -0.165549 -0.986057 -0.016865
vn 0.332018 -0.943112 -0.017445
vn 0.332019 -0.943111 0.017444
vn -0.165548 -0.986058 0.016865
vn -0.386038 -0.157886 -0.908871
vn -0.679212 -0.280604 -0.678183
vn -0.608106 0.421036 -0.673005
vn -0.305458 0.587793 -0.749130
vn -0.924438 -0.381053 -0.014591
vn -0.820941 0.570768 -0.016728
vn -0.608106 0.421036 -0.673005
vn -0.679212 -0.280604 -0.678183
vn -0.820941 0.570768 -0.016728
vn -0.443845 0.895936 -0.017332
vn -0.305458 0.587793 -0.749130
vn -0.608106 0.421036 -0.673005
vn -0.820941 0.570768 0.016728
vn -0.924438 -0.381053 0.014591
vn -0.679212 -0.280604 0.678183
vn -0.608094 0.421052 0.673006
vn -0.679212 -0.280604 0.678183
vn -0.386037 -0.157886 0.908871
vn -0.305451 0.587799 0.749127
vn -0.608094 0.421052 0.673006
vn -0.305451 0.587799 0.749127
vn -0.443847 0.895935 0.017332
vn -0.820941 0.570768 0.016728
vn -0.608094 0.421052 0.673006
vn 0.031255 0.820183 0.571246
vn 0.025063 0.010687 0.999629
vn 0.608793 -0.547546 0.574078
vn 0.913879 0.386515 -0.124222
vn 0.746866 -0.664925 0.008130
vn 0.776236 0.630378 -0.009008
vn 0.913879 0.386515 -0.124222
vn 0.608793 -0.547546 0.574078
vn 0.043252 0.999032 0.008030
vn 0.031255 0.820183 0.571246
vn 0.913879 0.386515 -0.124222
vn 0.776236 0.630378 -0.009008
vn 0.776236 0.630378 0.009008
vn 0.746866 -0.664925 -0.008130
vn 0.608793 -0.547546 -0.574078
vn 0.913881 0.386509 0.124227
vn 0.025063 0.010687 -0.999629
vn 0.031255 0.820183 -0.571246
vn 0.913881 0.386509 0.124227
vn 0.608793 -0.547546 -0.574078
vn 0.043252 0.999032 -0.008030
vn 0.776236 0.630378 0.009008
vn 0.913881 0.386509 0.124227
vn 0.031255 0.820183 -0.571246
vn 0.332018 -0.943112 -0.017445
vn -0.165549 -0.986057 -0.016865
vn -0.123567 -0.727337 -0.675065
vn 0.207592 -0.627164 -0.750714
vn -0.919983 -0.391687 -0.014581
vn -0.676817 -0.287488 -0.677695
vn -0.123567 -0.727337 -0.675065
vn -0.165549 -0.986057 -0.016865
vn -0.676817 -0.287488 -0.677695
vn -0.383604 -0.164482 -0.908732
vn 0.207592 -0.627164 -0.750714
vn -0.123567 -0.727337 -0.675065
vn -0.383605 -0.164483 0.908731
vn -0.676817 -0.287488 0.677694
vn -0.123569 -0.727335 0.675067
vn 0.207606 -0.627157 0.750716
vn -0.919983 -0.391687 0.014582
vn -0.165548 -0.986058 0.016865
vn -0.123569 -0.727335 0.675067
vn -0.676817 -0.287488 0.677694
vn -0.165548 -0.986058 0.016865
vn 0.332019 -0.943111 0.017444
vn 0.207606 -0.627157 0.750716
vn -0.123569 -0.727335 0.675067
s off
g Line_Arrow
f 12/28/1 9/9/2 2/17/3 5/10/4
f 20/35/5 24/13/6 17/34/7 15/14/8
f 14/29/9 18/11/10 4/22/11 3/12/12
f 23/40/13 21/15/14 8/23/15 10/16/16
f 23/8/17 10/47/18 11/48/19 12/5/20 5/43/21 6/44/22 4/6/23 18/52/24 16/51/25 17/7/26 24/56/27 22/55/28
f 8/4/29 21/54/30 19/53/31 20/1/32 15/50/33 13/49/34 14/2/35 3/42/36 1/41/37 2/3/38 9/46/39 7/45/40
f 5/10/41 2/17/42 1/18/43 6/19/44
f 6/21/45 1/20/46 3/12/47 4/22/48
f 10/16/49 8/23/50 7/24/51 11/25/52
f 11/27/53 7/26/54 9/9/55 12/28/56
f 18/11/57 14/29/58 13/30/59 16/31/60
f 16/33/61 13/32/62 15/14/63 17/34/64
f 24/13/65 20/35/66 19/36/67 22/37/68
f 22/39/69 19/38/70 21/15/71 23/40/72
f 30/57/73 27/58/74 49/65/75 54/66/76
f 39/59/77 45/60/78 29/70/79 33/71/80
f 43/61/81 51/92/82 25/69/83
f 35/62/84 32/78/85 52/102/86
f 41/63/87 37/64/88 56/98/89 47/97/90
f 49/65/91 27/58/92 26/67/93 50/91/94
f 26/68/95 25/69/96 51/92/97 50/93/98
f 29/70/99 28/72/100 34/73/101 33/71/102
f 34/75/103 28/74/104 27/58/105 30/57/106
f 44/76/107 43/61/108 25/69/109 57/104/110
f 29/70/111 45/60/112 44/77/113 57/103/114
f 32/78/115 31/79/116 53/101/117 52/102/118
f 31/80/119 30/57/120 54/66/121 53/100/122
f 40/81/123 39/59/124 33/71/125 59/109/126
f 32/78/127 35/62/128 40/82/129 59/108/130
f 37/64/131 36/83/132 65/126/133 56/98/134
f 36/84/135 35/62/136 52/102/137 65/127/138
f 45/60/139 39/59/140 38/85/141 46/86/142
f 46/88/143 38/87/144 37/64/145 41/63/146
f 43/61/147 42/89/148 63/121/149 51/92/150
f 42/90/151 41/63/152 47/97/153 63/122/154
f 54/66/155 49/65/156 48/94/157 55/95/158
f 48/96/159 47/97/160 56/98/161 55/99/162
f 25/69/163 26/68/164 58/105/165 57/104/166
f 27/58/167 28/74/168 58/106/169 26/67/170
f 28/72/171 29/70/172 57/103/173 58/107/174
f 34/75/175 30/57/176 31/80/177 60/110/178
f 31/79/179 32/78/180 59/108/181 60/111/182
f 59/109/183 33/71/184 34/73/185 60/112/186
f 40/82/187 35/62/188 36/113/189 61/114/190
f 37/64/191 38/87/192 61/115/193 36/83/194
f 39/59/195 40/81/196 61/116/197 38/85/198
f 46/88/199 41/63/200 42/90/201 62/118/202
f 43/61/203 44/117/204 62/119/205 42/89/206
f 45/60/207 46/86/208 62/120/209 44/77/210
f 47/97/211 48/96/212 64/123/213 63/122/214
f 49/65/215 50/91/216 64/124/217 48/94/218
f 50/93/219 51/92/220 63/121/221 64/125/222
f 52/102/223 53/101/224 66/128/225 65/127/226
f 54/66/227 55/95/228 66/129/229 53/100/230
f 55/99/231 56/98/232 65/126/233 66/130/234
